<mxfile host="app.diagrams.net" modified="2024-07-15T12:51:18.275Z" agent="Mozilla/5.0 (Windows NT 10.0; Win64; x64) AppleWebKit/537.36 (KHTML, like Gecko) Chrome/126.0.0.0 Safari/537.36" etag="5gaGOWxrQssLrZmZCjkl" version="24.6.5" type="github">
  <diagram name="第 1 页" id="es809ibb47ByKzEZP1Dd">
    <mxGraphModel dx="2074" dy="1098" grid="1" gridSize="10" guides="1" tooltips="1" connect="1" arrows="1" fold="1" page="1" pageScale="1" pageWidth="827" pageHeight="1169" math="0" shadow="0">
      <root>
        <mxCell id="0" />
        <mxCell id="1" parent="0" />
        <mxCell id="yAMQOu3uMsPidFsK8TRN-41" value="开始" style="whiteSpace=wrap;strokeWidth=2;" vertex="1" parent="1">
          <mxGeometry x="192" y="20" width="49" height="34" as="geometry" />
        </mxCell>
        <mxCell id="yAMQOu3uMsPidFsK8TRN-42" value="Keepalived 持续监控 Nginx 状态" style="whiteSpace=wrap;strokeWidth=2;" vertex="1" parent="1">
          <mxGeometry x="95" y="104" width="244" height="34" as="geometry" />
        </mxCell>
        <mxCell id="yAMQOu3uMsPidFsK8TRN-43" value="主节点 Nginx 或主机故障?" style="rhombus;strokeWidth=2;whiteSpace=wrap;" vertex="1" parent="1">
          <mxGeometry x="33" y="207" width="232" height="83" as="geometry" />
        </mxCell>
        <mxCell id="yAMQOu3uMsPidFsK8TRN-44" value="Keepalived 将 VIP 转移到备用节点" style="whiteSpace=wrap;strokeWidth=2;" vertex="1" parent="1">
          <mxGeometry x="20" y="330" width="258" height="34" as="geometry" />
        </mxCell>
        <mxCell id="yAMQOu3uMsPidFsK8TRN-45" value="备用节点的 Nginx 接管流量" style="whiteSpace=wrap;strokeWidth=2;" vertex="1" parent="1">
          <mxGeometry x="44" y="414" width="210" height="34" as="geometry" />
        </mxCell>
        <mxCell id="yAMQOu3uMsPidFsK8TRN-46" value="主节点恢复?" style="whiteSpace=wrap;strokeWidth=2;" vertex="1" parent="1">
          <mxGeometry x="99" y="517" width="101" height="34" as="geometry" />
        </mxCell>
        <mxCell id="yAMQOu3uMsPidFsK8TRN-47" value="可选: 将 VIP 切回主节点" style="whiteSpace=wrap;strokeWidth=2;" vertex="1" parent="1">
          <mxGeometry x="138" y="620" width="186" height="34" as="geometry" />
        </mxCell>
        <mxCell id="yAMQOu3uMsPidFsK8TRN-48" value="" style="curved=1;startArrow=none;endArrow=block;exitX=0.51;exitY=1;entryX=0.5;entryY=0;rounded=0;" edge="1" parent="1" source="yAMQOu3uMsPidFsK8TRN-41" target="yAMQOu3uMsPidFsK8TRN-42">
          <mxGeometry relative="1" as="geometry">
            <Array as="points" />
          </mxGeometry>
        </mxCell>
        <mxCell id="yAMQOu3uMsPidFsK8TRN-49" value="" style="curved=1;startArrow=none;endArrow=block;exitX=0.39;exitY=1;entryX=0.45;entryY=0;rounded=0;" edge="1" parent="1" source="yAMQOu3uMsPidFsK8TRN-42" target="yAMQOu3uMsPidFsK8TRN-43">
          <mxGeometry relative="1" as="geometry">
            <Array as="points">
              <mxPoint x="135" y="173" />
            </Array>
          </mxGeometry>
        </mxCell>
        <mxCell id="yAMQOu3uMsPidFsK8TRN-50" value="否" style="curved=1;startArrow=none;endArrow=block;exitX=0.73;exitY=0;entryX=0.5;entryY=1;rounded=0;" edge="1" parent="1" source="yAMQOu3uMsPidFsK8TRN-43" target="yAMQOu3uMsPidFsK8TRN-42">
          <mxGeometry relative="1" as="geometry">
            <Array as="points">
              <mxPoint x="217" y="173" />
            </Array>
          </mxGeometry>
        </mxCell>
        <mxCell id="yAMQOu3uMsPidFsK8TRN-51" value="是" style="curved=1;startArrow=none;endArrow=block;exitX=0.5;exitY=1;entryX=0.5;entryY=0.01;rounded=0;" edge="1" parent="1" source="yAMQOu3uMsPidFsK8TRN-43" target="yAMQOu3uMsPidFsK8TRN-44">
          <mxGeometry relative="1" as="geometry">
            <Array as="points" />
          </mxGeometry>
        </mxCell>
        <mxCell id="yAMQOu3uMsPidFsK8TRN-52" value="" style="curved=1;startArrow=none;endArrow=block;exitX=0.5;exitY=1.01;entryX=0.5;entryY=0.01;rounded=0;" edge="1" parent="1" source="yAMQOu3uMsPidFsK8TRN-44" target="yAMQOu3uMsPidFsK8TRN-45">
          <mxGeometry relative="1" as="geometry">
            <Array as="points" />
          </mxGeometry>
        </mxCell>
        <mxCell id="yAMQOu3uMsPidFsK8TRN-53" value="" style="curved=1;startArrow=none;endArrow=block;exitX=0.48;exitY=1.01;entryX=0.45;entryY=0.01;rounded=0;" edge="1" parent="1" source="yAMQOu3uMsPidFsK8TRN-45" target="yAMQOu3uMsPidFsK8TRN-46">
          <mxGeometry relative="1" as="geometry">
            <Array as="points">
              <mxPoint x="135" y="483" />
            </Array>
          </mxGeometry>
        </mxCell>
        <mxCell id="yAMQOu3uMsPidFsK8TRN-54" value="否" style="curved=1;startArrow=none;endArrow=block;exitX=0.72;exitY=0.01;entryX=0.61;entryY=1.01;rounded=0;" edge="1" parent="1" source="yAMQOu3uMsPidFsK8TRN-46" target="yAMQOu3uMsPidFsK8TRN-45">
          <mxGeometry relative="1" as="geometry">
            <Array as="points">
              <mxPoint x="217" y="483" />
            </Array>
          </mxGeometry>
        </mxCell>
        <mxCell id="yAMQOu3uMsPidFsK8TRN-55" value="是" style="curved=1;startArrow=none;endArrow=block;exitX=0.5;exitY=1.01;entryX=0.36;entryY=0.01;rounded=0;" edge="1" parent="1" source="yAMQOu3uMsPidFsK8TRN-46" target="yAMQOu3uMsPidFsK8TRN-47">
          <mxGeometry relative="1" as="geometry">
            <Array as="points">
              <mxPoint x="149" y="586" />
            </Array>
          </mxGeometry>
        </mxCell>
        <mxCell id="yAMQOu3uMsPidFsK8TRN-56" value="" style="curved=1;startArrow=none;endArrow=block;exitX=0.65;exitY=0.01;entryX=0.63;entryY=1;rounded=0;" edge="1" parent="1" source="yAMQOu3uMsPidFsK8TRN-47" target="yAMQOu3uMsPidFsK8TRN-42">
          <mxGeometry relative="1" as="geometry">
            <Array as="points">
              <mxPoint x="313" y="764" />
              <mxPoint x="313" y="173" />
            </Array>
          </mxGeometry>
        </mxCell>
      </root>
    </mxGraphModel>
  </diagram>
</mxfile>
